<svg id="eDgor4j7eUx1" xmlns="http://www.w3.org/2000/svg" xmlns:xlink="http://www.w3.org/1999/xlink" viewBox="0 0 256 256" shape-rendering="geometricPrecision" text-rendering="geometricPrecision" width="256" height="256" style="background-color:transparent"><style><![CDATA[#eDgor4j7eUx9 {animation: eDgor4j7eUx9_c_o 6000ms linear infinite normal forwards}@keyframes eDgor4j7eUx9_c_o { 0% {opacity: 0} 8.333333% {opacity: 0} 25% {opacity: 1} 75% {opacity: 1} 91.666667% {opacity: 0} 100% {opacity: 0}}]]></style><g transform="matrix(17.591987 0 0 17.591966 0-.000225)"><g><g transform="matrix(.277529 0 0 0.277487-.219336-22.2642)"><path d="M53.23276,132.6776h-52.442444v-52.442445h52.442444Z" fill="#003049" stroke-width="0.760454"/><g transform="matrix(.760454 0 0-.760454 32.2193 119.351)"><path d="M0,0h9.329v-33.901h-18.308c-9.189-.418-13.576,3.829-13.576,13.017v20.884h9.329v-21.789c-.07-2.993,4.455-4.873,4.455-4.873h8.771Z" transform="translate(11.043018 33.942246)" fill="#fff"/><path d="M0,0h-20.469c-9.189-.417-13.575,3.83-13.575,13.018v20.884h9.329v-21.789c-.07-2.993,1.6-4.873,4.455-4.873h11.471Z" fill="#fff"/></g><g id="eDgor4j7eUx9" transform="matrix(.760454 0 0-.760454 40.5987 93.5407)" opacity="0"><path d="M0,0h9.329v-33.901h-18.308c-9.189-.418-13.576,3.829-13.576,13.017v20.884h9.329v-21.789c-.07-2.993,4.455-4.873,4.455-4.873h8.771Z" fill="#f77f00"/></g></g></g></g></svg>